# xmcd
# 
# Track frame offsets:
#     150
#     22683
#     45520
#     68053
# 
# Disc length: 1210
# 
# Revision: 1
# Processed by: cddbd v1.5.2PL0 Copyright (c) Steve Scherf et al.
# Submitted via: fre:ac v1.0.17
# 
DISCID=2304b804
DTITLE=Rie Yoshizawa Duet with　Kadomatsu.T - Never Gonna　Miss You
DYEAR=0
DGENRE=Vocal
TTITLE0=Never Gonna Miss You
TTITLE1=Never Gonna Miss You 〜Female Version〜
TTITLE2=Never Gonna Miss You 〜Male Version
TTITLE3=Never Gonna Miss You 〜instrumental〜
EXTD=
EXTT0=
EXTT1=
EXTT2=
EXTT3=
PLAYORDER=
